<svg width="34" height="19" viewBox="0 0 34 19" fill="none" xmlns="http://www.w3.org/2000/svg">
<path d="M19.8281 1.5625H17.7188V2.73438C17.7188 2.94922 17.5289 3.125 17.2969 3.125H16.4531C16.2211 3.125 16.0312 2.94922 16.0312 2.73438V1.5625H5.90625V2.73438C5.90625 2.94922 5.71641 3.125 5.48438 3.125H4.64062C4.40859 3.125 4.21875 2.94922 4.21875 2.73438V1.5625H2.10938C0.949219 1.5625 0 2.44141 0 3.51562V16.7969C0 17.8711 0.949219 18.75 2.10938 18.75H19.8281C20.9883 18.75 21.9375 17.8711 21.9375 16.7969V3.51562C21.9375 2.44141 20.9883 1.5625 19.8281 1.5625ZM20.25 16.2109C20.25 16.748 19.7754 17.1875 19.1953 17.1875H2.74219C2.16211 17.1875 1.6875 16.748 1.6875 16.2109V7.42188C1.6875 7.20703 1.87734 7.03125 2.10938 7.03125H19.8281C20.0602 7.03125 20.25 7.20703 20.25 7.42188V16.2109ZM5.90625 0.390625C5.90625 0.175781 5.71641 0 5.48438 0H4.64062C4.40859 0 4.21875 0.175781 4.21875 0.390625V1.5625H5.90625V0.390625ZM17.7188 0.390625C17.7188 0.175781 17.5289 0 17.2969 0H16.4531C16.2211 0 16.0312 0.175781 16.0312 0.390625V1.5625H17.7188V0.390625Z" fill="#575353"/>
<circle cx="14.4688" cy="9.875" r="1" fill="#006300"/>
<path d="M29 8L33.3301 12.5H24.6699L29 8Z" fill="#006300"/>
</svg>
