<svg width="19" height="16" viewBox="0 0 19 16" fill="none" xmlns="http://www.w3.org/2000/svg">
<path d="M2.21121 1.86571V15.7254C2.21121 15.8726 2.35293 15.992 2.52775 15.992H14.5551C14.7298 15.992 14.8715 15.8726 14.8715 15.7254V4.53111C14.8715 4.52518 14.8681 4.52013 14.8674 4.51431C14.8659 4.49093 14.8604 4.46787 14.8513 4.44581C14.8477 4.43724 14.8453 4.42901 14.8408 4.42067C14.8255 4.39168 14.8041 4.36522 14.7775 4.34261L11.6124 1.67732C11.5856 1.65481 11.554 1.63681 11.5194 1.62396C11.5098 1.62056 11.5002 1.6177 11.4903 1.61518C11.4638 1.60749 11.4363 1.60288 11.4083 1.60134C11.4029 1.60211 11.3967 1.59926 11.39 1.59926H2.52775C2.35293 1.59926 2.21121 1.71849 2.21121 1.86571ZM13.791 4.26455H11.7064V2.50917L13.791 4.26455ZM2.84417 2.13227H11.0735V4.53111C11.0735 4.67823 11.2152 4.79756 11.3899 4.79756H14.2385V15.4589H2.84417V2.13227Z" fill="black"/>
<path d="M15.5045 13.8597V14.3927H16.454C16.6288 14.3927 16.7706 14.2735 16.7706 14.1262V0.266562C16.7706 0.119338 16.6288 0 16.454 0H4.42671C4.25188 0 4.11017 0.119338 4.11017 0.266562V1.06614H4.74325V0.533014H16.1375V13.8597H15.5045Z" fill="black"/>
<path d="M4.74326 5.33069H12.3394V5.8637H4.74326V5.33069Z" fill="black"/>
<path d="M4.74326 3.73143H7.27533V4.26455H4.74326V3.73143Z" fill="black"/>
<path d="M4.74326 6.92986H9.80742V7.46298H4.74326V6.92986Z" fill="black"/>
<path d="M10.4404 6.92986H12.3394V7.46298H10.4404V6.92986Z" fill="black"/>
<path d="M4.74326 8.52899H12.3394V9.06211H4.74326V8.52899Z" fill="black"/>
<path d="M4.74326 11.7274H12.3394V12.2605H4.74326V11.7274Z" fill="black"/>
<path d="M7.59174 10.1283H12.3393V10.6613H7.59174V10.1283Z" fill="black"/>
<path d="M4.74326 10.1283H6.95879V10.6613H4.74326V10.1283Z" fill="black"/>
<path d="M4.74326 13.3267H6.00929V13.8597H4.74326V13.3267Z" fill="black"/>
<path d="M6.64227 13.3267H12.3394V13.8597H6.64227V13.3267Z" fill="black"/>
</svg>
