<svg width="21" height="17" viewBox="0 0 21 17" fill="none" xmlns="http://www.w3.org/2000/svg">
<g clip-path="url(#clip0)">
<path d="M10.4062 0.183472C7.95218 0.183472 5.96289 1.9605 5.96289 4.15273C5.96289 5.92503 8.86694 9.15525 9.97955 10.3278C10.2049 10.5653 10.608 10.5653 10.833 10.3278C11.9456 9.15525 14.8496 5.92503 14.8496 4.15273C14.8496 1.9605 12.8603 0.183472 10.4062 0.183472ZM10.4062 5.47581C9.58811 5.47581 8.92513 4.88357 8.92513 4.15273C8.92513 3.42188 9.58811 2.82964 10.4062 2.82964C11.2244 2.82964 11.8874 3.42188 11.8874 4.15273C11.8874 4.88357 11.2244 5.47581 10.4062 5.47581ZM0.959527 6.98633C0.750117 7.06115 0.570603 7.1903 0.444136 7.35712C0.317669 7.52394 0.25005 7.72078 0.25 7.92226L0.25 15.8078C0.25 16.1644 0.653076 16.4083 1.02371 16.276L5.89236 14.2964V6.95389C5.58062 6.45048 5.32566 5.96031 5.14298 5.49156L0.959527 6.98633ZM10.4062 11.5138C9.91008 11.5138 9.4407 11.3191 9.11873 10.9795C8.42543 10.2487 7.68804 9.4164 7.02083 8.56269V14.2961L13.7917 16.3122V8.56301C13.1245 9.4164 12.3874 10.249 11.6938 10.9798C11.3718 11.3191 10.9024 11.5138 10.4062 11.5138ZM19.7888 5.26034L14.9201 7.23992V16.3125L19.853 14.55C20.0624 14.4752 20.242 14.346 20.3684 14.1792C20.4949 14.0124 20.5625 13.8155 20.5625 13.614V5.72846C20.5625 5.37185 20.1594 5.12803 19.7888 5.26034Z" fill="black"/>
</g>
<defs>
<clipPath id="clip0">
<rect x="0.25" y="0.6875" width="20.3125" height="15.625" fill="white"/>
</clipPath>
</defs>
</svg>
