<?xml version="1.0"?>
<svg xmlns="http://www.w3.org/2000/svg" viewBox="0 0 80 80">
    <path style="line-height:normal;text-indent:0;text-align:start;text-decoration-line:none;text-decoration-style:solid;text-decoration-color:#000;text-transform:none;block-progression:tb;isolation:auto;mix-blend-mode:normal" d="M 51 31 C 46.378315 31 42.55716 34.511908 42.058594 39.003906 A 1 1 0 0 0 42 39 A 1 1 0 0 0 41 40 A 1 1 0 0 0 42 41 A 1 1 0 0 0 42.058594 40.998047 C 42.558042 45.48912 46.378978 49 51 49 C 55.958718 49 60 44.958718 60 40 C 60 35.041282 55.958718 31 51 31 z M 27.292969 32.292969 L 19.585938 40 L 27.292969 47.707031 L 28.707031 46.292969 L 22.414062 40 L 28.707031 33.707031 L 27.292969 32.292969 z M 51 33 C 54.877838 33 58 36.122162 58 40 C 58 43.877838 54.877838 47 51 47 C 47.122162 47 44 43.877838 44 40 C 44 36.122162 47.122162 33 51 33 z M 26 39 A 1 1 0 0 0 25 40 A 1 1 0 0 0 26 41 A 1 1 0 0 0 27 40 A 1 1 0 0 0 26 39 z M 30 39 A 1 1 0 0 0 29 40 A 1 1 0 0 0 30 41 A 1 1 0 0 0 31 40 A 1 1 0 0 0 30 39 z M 34 39 A 1 1 0 0 0 33 40 A 1 1 0 0 0 34 41 A 1 1 0 0 0 35 40 A 1 1 0 0 0 34 39 z M 38 39 A 1 1 0 0 0 37 40 A 1 1 0 0 0 38 41 A 1 1 0 0 0 39 40 A 1 1 0 0 0 38 39 z" font-weight="400" font-family="sans-serif" white-space="normal" overflow="visible"/>
</svg>
