<?xml version="1.0"?>
<svg xmlns="http://www.w3.org/2000/svg" viewBox="0 0 80 80">
    <path style="line-height:normal;text-indent:0;text-align:start;text-decoration-line:none;text-decoration-style:solid;text-decoration-color:#000;text-transform:none;block-progression:tb;isolation:auto;mix-blend-mode:normal" d="M 29 31 C 24.041282 31 20 35.041282 20 40 C 20 44.958718 24.041282 49 29 49 C 33.621685 49 37.44284 45.488092 37.941406 40.996094 A 1 1 0 0 0 38 41 A 1 1 0 0 0 39 40 A 1 1 0 0 0 38 39 A 1 1 0 0 0 37.941406 39.001953 C 37.441958 34.51088 33.621022 31 29 31 z M 52.707031 32.292969 L 51.292969 33.707031 L 57.585938 40 L 51.292969 46.292969 L 52.707031 47.707031 L 60.414062 40 L 52.707031 32.292969 z M 29 33 C 32.877838 33 36 36.122162 36 40 C 36 43.877838 32.877838 47 29 47 C 25.122162 47 22 43.877838 22 40 C 22 36.122162 25.122162 33 29 33 z M 42 39 A 1 1 0 0 0 41 40 A 1 1 0 0 0 42 41 A 1 1 0 0 0 43 40 A 1 1 0 0 0 42 39 z M 46 39 A 1 1 0 0 0 45 40 A 1 1 0 0 0 46 41 A 1 1 0 0 0 47 40 A 1 1 0 0 0 46 39 z M 50 39 A 1 1 0 0 0 49 40 A 1 1 0 0 0 50 41 A 1 1 0 0 0 51 40 A 1 1 0 0 0 50 39 z M 54 39 A 1 1 0 0 0 53 40 A 1 1 0 0 0 54 41 A 1 1 0 0 0 55 40 A 1 1 0 0 0 54 39 z" font-weight="400" font-family="sans-serif" white-space="normal" overflow="visible"/>
</svg>
